<!DOCTYPE svg PUBLIC "-//W3C//DTD SVG 1.1//EN" "http://www.w3.org/Graphics/SVG/1.1/DTD/svg11.dtd">
<!-- Uploaded to: SVG Repo, www.svgrepo.com, Transformed by: SVG Repo Mixer Tools -->
<svg width="800px" height="800px" viewBox="-4.52 0 293.889 293.889" xmlns="http://www.w3.org/2000/svg" fill="#000000">
<g id="SVGRepo_bgCarrier" stroke-width="0"/>
<g id="SVGRepo_tracerCarrier" stroke-linecap="round" stroke-linejoin="round"/>
<g id="SVGRepo_iconCarrier">
<defs>
<style>.a{fill:#ffffff;}.b{fill:#ffffff;}</style>
</defs>
<path class="a" d="M261.9,98.083c12.9,10.724,20.509,27.063,20.509,46.443,0,23.217-10.219,41.28-26.923,51.312,2.144,15.389-3.2,31.161-15.844,43.806-17.071,17.072-38.55,20.763-57.626,11.954-9.425,11.22-23.709,17.83-40.639,17.83-12.3,0-22.948-3.269-31.4-9.086-5.188,8.562-17.041,13.163-28.3,10.146-10.361-2.779-16-14.534-14.094-27.166a55.263,55.263,0,0,1-24.481-14.6c-13.059-13.06-18.291-28.7-16.087-43.869C12.252,174.829,2.414,157.869,2.414,137.038c0-21.265,10.261-38.43,25.473-48.364C25.294,73,30,56.227,43.118,43.112,58.034,28.2,77.641,24.211,94.964,29.359c8.62-15.945,25.356-26.948,46.42-26.948,18.014,0,32.809,8.055,42.109,20.3,17.878-3.25,37.122,1.974,52.114,16.965,15.02,15.02,20.181,34.269,16.94,52.116A55.77,55.77,0,0,1,261.9,98.083Z"/>
<path class="a" d="M55.329,278.219a6.659,6.659,0,0,0-6.962,6.567c0,3.962,2.907,6.69,6.963,6.69,4.212,0,6.962-2.754,6.962-6.69A6.653,6.653,0,0,0,55.329,278.219Z"/>
<path class="b" d="M31.663,94.353a49.127,49.127,0,0,1,5.266-39.608C44.6,42.257,57.394,33.008,71.865,30.361a48.816,48.816,0,0,1,22.461,1.312c2.97.871,4.239-3.76,1.276-4.629a53.978,53.978,0,0,0-43.264,5.732C38.81,41.07,28.52,55.04,25.69,70.758a54.1,54.1,0,0,0,1.345,24.871c.87,2.957,5.5,1.7,4.628-1.276Z"/>
<path class="b" d="M32.669,185.505A54,54,0,0,1,6.307,150.459c-3.631-15.629-.767-32.7,8.466-45.891a53.686,53.686,0,0,1,18.317-16.2c2.713-1.48.293-5.626-2.422-4.145A58.753,58.753,0,0,0,1.844,121.656c-4.109,16.781-1.375,35.446,8.435,49.8A58.823,58.823,0,0,0,30.246,189.65c2.7,1.5,5.126-2.642,2.423-4.145Z"/>
<path class="b" d="M67,240.655c-10.81-3.295-20.064-10.306-27.074-19.079A48.771,48.771,0,0,1,28.988,193.7a46.171,46.171,0,0,1,2.29-16.4c.955-2.946-3.678-4.207-4.629-1.276a50.018,50.018,0,0,0,.213,31.711C30.791,219.07,38.511,228.9,48,236.149a56.246,56.246,0,0,0,17.73,9.134c2.962.9,4.228-3.729,1.276-4.628Z"/>
<path class="b" d="M185.756,241.744a46.685,46.685,0,0,1-19.58,19.516c-9.253,4.841-19.895,6.4-30.233,5.549a52.84,52.84,0,0,1-18.434-4.864,2.465,2.465,0,0,0-3.284.861,2.421,2.421,0,0,0,.861,3.283c20.479,9.8,47.292,7.292,64.287-8.26A51.192,51.192,0,0,0,189.9,244.166c1.453-2.725-2.689-5.152-4.145-2.422Z"/>
<path class="b" d="M251.456,188.72a47.526,47.526,0,0,1-5.771,39.7c-7.842,12.213-20.647,21.9-35.029,24.649a45.212,45.212,0,0,1-22.19-1.509c-2.95-.94-4.213,3.693-1.276,4.628a51.149,51.149,0,0,0,42.842-5.758c13.42-8.455,24.181-22.218,27.311-37.945a51.522,51.522,0,0,0-1.258-25.041c-.9-2.947-5.531-1.691-4.629,1.276Z"/>
<path class="b" d="M250.609,93.477a53.267,53.267,0,0,1,17.966,14.995,56.471,56.471,0,0,1,9.916,21.754c3.646,16.3,1.154,34.675-8.324,48.61a51.857,51.857,0,0,1-19.221,16.782c-2.747,1.416-.322,5.56,2.422,4.144a57.843,57.843,0,0,0,29.679-38.96c3.979-17.65,1.506-37.4-8.752-52.545a58.128,58.128,0,0,0-21.264-18.925c-2.736-1.426-5.166,2.715-2.422,4.145Z"/>
<path class="b" d="M177.91,26.511A55.524,55.524,0,0,1,222.567,32.4c14.107,8.614,24.6,23.042,27.633,39.356a55.176,55.176,0,0,1-1.361,25.309c-.858,2.974,3.773,4.244,4.628,1.276a60.379,60.379,0,0,0-6.625-48.35c-9.334-15.076-24.951-26.519-42.526-29.638a60.522,60.522,0,0,0-27.682,1.535c-2.956.871-1.7,5.505,1.276,4.628Z"/>
<path class="b" d="M97.036,30.57A49.154,49.154,0,0,1,128.781,6.26c14.276-3.424,29.921-.888,42.025,7.518A48.9,48.9,0,0,1,185.7,30.558c1.481,2.712,5.627.292,4.144-2.423a53.927,53.927,0,0,0-34.57-26.5c-15.5-3.728-32.721-1.107-45.88,8.081a54.005,54.005,0,0,0-16.5,18.43c-1.479,2.714,2.664,5.139,4.144,2.423Z"/>
<path class="b" d="M64.844,249.155c.28,7.3,2.885,14.944,8.682,19.7,6.25,5.129,15.166,5.986,22.809,3.974a27.8,27.8,0,0,0,11.917-6.551c2.26-2.115-1.139-5.5-3.394-3.394a24.093,24.093,0,0,1-18.884,5.988,16.92,16.92,0,0,1-13.855-9.482,24.734,24.734,0,0,1-2.475-10.237c-.118-3.079-4.919-3.094-4.8,0Z"/>
<path class="b" d="M55.329,275.819a9.346,9.346,0,0,0-8.936,6.253,9.1,9.1,0,0,0,3.226,10.048,10.267,10.267,0,0,0,10.6.569,9.024,9.024,0,0,0,4.328-9.434c-.667-4.485-4.872-7.382-9.217-7.436a2.4,2.4,0,1,0,0,4.8c.206,0,.411.02.616.023.633.01-.316-.08.055,0,.346.073.688.138,1.027.245.119.038.235.086.353.123-.554-.171-.02-.008.1.052a9.021,9.021,0,0,1,.919.557c-.065-.043-.383-.333-.07-.049.13.118.261.232.385.356s.643.832.3.305c.158.242.319.476.455.732.016.03.287.53.1.181-.172-.323.1.284.121.363a2.43,2.43,0,0,1,.2.851l-.038-.287q.02.178.03.357t.009.36a2.881,2.881,0,0,1-.051.914c.211-.56.01-.116-.028.058s-.077.335-.125.5-.105.32-.16.479c-.155.451.05-.11.048-.114.053.133-.366.658-.438.781l-.044.068q-.227.315.087-.1c-.02.1-.247.289-.318.363s-.15.154-.228.228-.57.418-.252.23c.34-.2-.121.072-.158.1q-.21.135-.429.252c-.1.053-.2.1-.3.152-.5.263.494-.141-.061.019-.285.082-.561.18-.852.245-.147.033-.307.045-.451.087q-.269.043.173-.022c-.127.014-.255.025-.383.033a9.424,9.424,0,0,1-.98.01c-.159-.007-.317-.027-.475-.035-.376-.018.572.128-.007,0-.294-.067-.586-.124-.875-.213-.168-.052-.329-.121-.5-.173.563.178.08.028-.054-.041-.252-.129-.483-.285-.723-.431-.477-.289.361.352-.041-.03-.08-.075-.166-.145-.245-.221-.12-.114-.234-.233-.344-.356-.046-.052-.3-.462-.125-.141.189.34-.073-.126-.1-.164-.105-.165-.191-.339-.289-.507s-.318-.38,0,.034A1.843,1.843,0,0,1,51,286.3c-.087-.283-.145-.569-.2-.858-.033-.162.015-.395.013.1,0-.185-.029-.374-.034-.56,0-.123,0-.247,0-.371s.009-.237.019-.356c.028-.273.021-.235-.021.112-.075-.235.18-.8.253-1.013.037-.11.079-.217.12-.325-.235.621.06-.078.131-.2.057-.1.116-.2.178-.3s.126-.192.194-.285q-.306.381-.057.077c.239-.258.481-.5.737-.74.1-.1.346-.21-.07.048.2-.126.392-.269.6-.388.1-.06.211-.118.319-.172s.219-.107.33-.156c-.261.109-.309.133-.143.07.371-.1.724-.23,1.1-.3.143-.027.577-.054.047-.015.274-.02.545-.037.819-.041a2.4,2.4,0,1,0,0-4.8Z"/>
</g>
</svg>