<?xml version="1.0" encoding="utf-8"?>

<!DOCTYPE svg PUBLIC "-//W3C//DTD SVG 1.1//EN" "http://www.w3.org/Graphics/SVG/1.1/DTD/svg11.dtd">
<!-- Uploaded to: SVG Repo, www.svgrepo.com, Generator: SVG Repo Mixer Tools -->
<svg height="800px" width="800px" version="1.1" id="_x32_" xmlns="http://www.w3.org/2000/svg" xmlns:xlink="http://www.w3.org/1999/xlink" 
	 viewBox="0 0 512 512"  xml:space="preserve">
<style type="text/css">
	.st0{fill:#000000;}
</style>
<g>
	<path class="st0" d="M402.061,149.221c-7.02,2.845-14.662,4.414-22.717,4.414c-11.794,0-22.739-3.348-32.041-9.158
		c-9.294-5.81-16.906-14.084-21.921-23.888l-7.71-15.074l-7.71,15.074c-5,9.804-12.627,18.078-21.928,23.888
		c-7.418,4.639-15.885,7.673-25,8.724V99.538h6.487v-46.8c0-7.237-1.472-14.219-4.152-20.54
		c-4.009-9.474-10.675-17.499-19.091-23.182c-8.4-5.69-18.625-9.023-29.496-9.016c-7.237,0-14.218,1.479-20.54,4.151
		c-9.474,4.017-17.499,10.676-23.19,19.091c-5.683,8.401-9.024,18.633-9.008,29.496c-0.015,10.442,3.07,20.299,8.356,28.498
		l25.479-16.381c-2.252-3.513-3.536-7.598-3.543-12.117c0-3.138,0.623-6.051,1.756-8.731c1.689-4.009,4.557-7.47,8.154-9.888
		c3.595-2.417,7.837-3.82,12.536-3.828c3.146,0,6.051,0.63,8.738,1.764c4.001,1.689,7.462,4.557,9.88,8.146
		c2.432,3.596,3.822,7.837,3.828,12.537v46.8h6.494v53.196c-7.883-1.351-15.233-4.181-21.764-8.258
		c-9.294-5.81-16.914-14.084-21.928-23.888l-7.703-15.074l-7.71,15.074c-5.008,9.804-12.628,18.078-21.922,23.888
		c-9.301,5.811-20.239,9.158-32.048,9.158c-8.048,0-15.69-1.569-22.717-4.414l-20.27-8.213l156.316,338.696l0.082-0.044V512h19.879
		v-32.341l0.083,0.044l156.316-338.696L402.061,149.221z M256,460.11L122.214,170.241c3.416,0.458,6.899,0.706,10.435,0.706
		c15.112,0.008,29.278-4.317,41.222-11.786c7.89-4.932,14.797-11.261,20.457-18.596c5.66,7.335,12.567,13.664,20.45,18.596
		c11.952,7.47,26.117,11.794,41.222,11.786c15.112,0.008,29.27-4.317,41.207-11.786c7.898-4.932,14.812-11.261,20.465-18.596
		c5.661,7.335,12.567,13.664,20.458,18.596c11.944,7.47,26.11,11.794,41.214,11.786c3.543,0,7.019-0.248,10.442-0.706L256,460.11z"
		/>
</g>
</svg>