<!DOCTYPE svg PUBLIC "-//W3C//DTD SVG 1.1//EN" "http://www.w3.org/Graphics/SVG/1.1/DTD/svg11.dtd">

<!-- Uploaded to: SVG Repo, www.svgrepo.com, Transformed by: SVG Repo Mixer Tools -->
<svg width="800px" height="800px" viewBox="-4.52 0 293.889 293.889" xmlns="http://www.w3.org/2000/svg" fill="#000000">

<g id="SVGRepo_bgCarrier" stroke-width="0"/>

<g id="SVGRepo_tracerCarrier" stroke-linecap="round" stroke-linejoin="round"/>

<g id="SVGRepo_iconCarrier">

<defs>

<style>.a{fill:#ffffff;}.b{fill:#ffffff;}</style>

</defs>

<path class="a" d="M261.9,98.083c12.9,10.724,20.509,27.063,20.509,46.443,0,23.217-10.219,41.28-26.923,51.312,2.144,15.389-3.2,31.161-15.844,43.806-17.071,17.072-38.55,20.763-57.626,11.954-9.425,11.22-23.709,17.83-40.639,17.83-12.3,0-22.948-3.269-31.4-9.086-5.188,8.562-17.041,13.163-28.3,10.146-10.361-2.779-16-14.534-14.094-27.166a55.263,55.263,0,0,1-24.481-14.6c-13.059-13.06-18.291-28.7-16.087-43.869C12.252,174.829,2.414,157.869,2.414,137.038c0-21.265,10.261-38.43,25.473-48.364C25.294,73,30,56.227,43.118,43.112,58.034,28.2,77.641,24.211,94.964,29.359c8.62-15.945,25.356-26.948,46.42-26.948,18.014,0,32.809,8.055,42.109,20.3,17.878-3.25,37.122,1.974,52.114,16.965,15.02,15.02,20.181,34.269,16.94,52.116A55.77,55.77,0,0,1,261.9,98.083Z"/>

</g>

</svg>