<svg xmlns="http://www.w3.org/2000/svg" xmlns:xlink="http://www.w3.org/1999/xlink" width="201.779" height="42.651" viewBox="0 0 201.779 42.651">
  <defs>
    <linearGradient id="linear-gradient" x1="0.703" y1="0.113" x2="-0.017" y2="0.879" gradientUnits="objectBoundingBox">
      <stop offset="0" stop-color="#b4eefa"/>
      <stop offset="0.32" stop-color="#5ddbec"/>
      <stop offset="0.62" stop-color="#51cce8"/>
      <stop offset="1" stop-color="#38abe0"/>
    </linearGradient>
  </defs>
  <g id="アセット_5" data-name="アセット 5" transform="translate(0 -0.01)" style="isolation: isolate">
    <g id="レイヤー_2" data-name="レイヤー 2" transform="translate(0 0.01)">
      <g id="design" transform="translate(0 0)">
        <path id="パス_1998" data-name="パス 1998" d="M836.226,84.5a12.147,12.147,0,1,1-12.068,12.134A12.079,12.079,0,0,1,836.226,84.5Zm0,20.841a8.742,8.742,0,1,0-8.711-8.711A8.738,8.738,0,0,0,836.226,105.341Z" transform="translate(-730.92 -74.941)"/>
        <path id="パス_1999" data-name="パス 1999" d="M1632.36,88.109a.637.637,0,0,1,.638-.639h9.143a7.252,7.252,0,0,1,7.327,7.194,7.459,7.459,0,0,1-4.978,6.823l4.606,8.539a.636.636,0,0,1-.573.974h-2.618a.622.622,0,0,1-.539-.3l-4.47-8.908h-5.072v8.572a.661.661,0,0,1-.638.638H1633a.637.637,0,0,1-.638-.638Zm9.512,10.789a4.175,4.175,0,0,0,4.1-4.168,4.12,4.12,0,0,0-4.1-4h-5.983V98.9Z" transform="translate(-1447.69 -77.576)"/>
        <path id="パス_2000" data-name="パス 2000" d="M1131.588,87.47H1129.2a.618.618,0,0,0-.566.37l-7.4,16.639h-.2l-7.4-16.639a.657.657,0,0,0-.566-.37h-2.387a.594.594,0,0,0-.571.874l10.253,22.626c0,.011.016.021.022.033h1.433c.007-.011.017-.021.023-.033l10.32-22.626A.6.6,0,0,0,1131.588,87.47Z" transform="translate(-984.466 -77.576)"/>
        <path id="パス_2001" data-name="パス 2001" d="M556.481,101.422a8.72,8.72,0,0,1-16-4.788,8.691,8.691,0,0,1,15.7-5.225l3.108-1.485a12.078,12.078,0,1,0,.3,12.922Z" transform="translate(-476.355 -74.941)"/>
        <path id="パス_2002" data-name="パス 2002" d="M1407.558,90.63a.638.638,0,0,0,.639-.639V88.109a.638.638,0,0,0-.639-.639h-13.45a.637.637,0,0,0-.638.639v22.253a.637.637,0,0,0,.638.638h13.45a.638.638,0,0,0,.639-.638v-1.85a.638.638,0,0,0-.639-.638H1397v-7.221h8.908a.639.639,0,0,0,.639-.639V98.126a.662.662,0,0,0-.639-.638H1397V90.63Z" transform="translate(-1235.826 -77.576)"/>
        <path id="パス_2003" data-name="パス 2003" d="M42.06,15.486,9.38.522A5.657,5.657,0,0,0,3.96.914L2.588,1.8A5.657,5.657,0,0,0,0,6.549V35.925a5.657,5.657,0,0,0,2.585,4.751l1.66,1.077a5.657,5.657,0,0,0,5.511.354L42.121,26.635a5.657,5.657,0,0,0,3.216-4.966l.023-.905A5.657,5.657,0,0,0,42.06,15.486ZM7.337,36.676l-1.4-.905V5.48L39.992,21.071Z" transform="translate(0 -0.01)" fill="url(#linear-gradient)"/>
        <path id="パス_2004" data-name="パス 2004" d="M50.4,15.486,17.716.522A5.657,5.657,0,0,0,12.3.914L10.925,1.8A5.657,5.657,0,0,0,9.4,3.247L53.363,23.378a5.646,5.646,0,0,0,.309-1.709l.023-.905a5.657,5.657,0,0,0-3.3-5.278Z" transform="translate(-8.337 -0.01)" fill="#485af7" style="mix-blend-mode: color-burn;isolation: isolate"/>
      </g>
    </g>
  </g>
</svg>
